<svg width="1366" height="60" viewBox="0 0 1366 60" fill="none" xmlns="http://www.w3.org/2000/svg">
<path d="M0 59.7463L4.50874e-06 22.6772C5.91445 23.8675 11.5923 25.5679 17.7433 26.078C21.0554 26.4181 23.6579 27.0983 26.2602 28.4586C30.7552 30.8392 35.4868 32.3696 41.6378 31.1793C48.4985 29.8189 54.413 27.2683 62.2201 27.2683C70.9734 27.2683 80.1999 25.5679 88.9533 24.0375C93.6849 23.1873 97.7067 23.8675 101.965 25.5679C108.353 28.1185 114.977 28.1185 122.311 27.0983C132.01 25.7379 141.947 22.3371 151.883 26.5881C153.539 27.2683 156.141 27.2683 158.034 26.7582C163.475 25.3979 168.917 25.7379 174.358 25.3979C182.165 24.8877 189.972 23.6974 198.016 24.5476C200.145 24.7177 203.93 24.2076 204.64 23.1873C208.898 17.5759 215.759 16.7257 223.566 16.2156C226.405 16.0456 229.007 15.7055 231.136 17.0658C232.793 18.0861 234.685 18.4261 236.814 18.4261C242.256 18.5962 247.697 19.1063 253.138 19.2764C257.633 19.4464 261.655 18.5962 264.731 15.8755C266.15 14.5152 268.043 14.1751 270.172 13.835C275.14 13.1549 279.872 14.0051 284.13 15.8755C287.205 17.0658 289.808 17.0658 293.12 16.8958C300.927 16.2156 308.971 16.0456 316.778 15.3654C322.219 14.8553 327.424 16.7257 332.628 16.3857C341.855 15.7055 350.845 15.7055 359.835 17.5759C367.642 19.1063 376.632 18.0861 383.729 21.827C384.439 22.1671 385.385 21.827 386.095 21.827C389.644 21.4869 393.192 21.1468 396.741 22.3371C398.397 23.0173 400.526 22.5072 401.472 21.4869C404.548 18.2561 408.097 18.9363 411.882 20.6367C413.301 21.3169 414.721 20.9768 416.377 21.1468C427.023 21.4869 437.906 19.7865 448.551 22.1671C455.176 23.6975 462.273 21.827 468.897 23.6975C470.08 24.0375 471.5 23.3574 472.919 23.3574C476.704 23.0173 478.597 19.9565 481.672 19.9565C492.318 19.6165 502.728 19.1063 512.191 15.1954C513.137 14.8553 514.557 14.8553 515.74 15.0253C521.654 16.0456 527.332 14.6852 533.01 13.665C538.924 12.8148 544.839 11.6245 550.753 12.3047C554.538 12.8148 557.377 14.1751 561.872 13.495C570.389 11.9646 579.142 10.9443 587.186 8.22367C590.735 7.03337 594.047 6.69329 597.595 6.86333C599.015 6.86333 600.198 6.86333 601.617 6.69329C609.897 5.67304 618.178 3.12241 626.931 4.48275C628.824 4.82283 630.243 3.80259 631.899 3.4625C637.104 2.27221 642.545 0.571792 648.223 2.27221C652.008 3.29246 655.557 3.63254 659.579 3.80258C674.483 4.14267 688.441 7.37346 701.926 11.6245C705.475 12.6448 708.314 12.6448 711.626 11.9646C715.884 11.1144 719.67 9.41397 723.928 9.07388C730.552 8.56376 737.176 9.24392 743.564 10.9443C745.22 11.4545 747.586 12.3047 749.005 11.2844C753.973 8.22368 758.468 9.92409 763.2 11.2844C768.878 13.1549 774.082 12.1346 778.577 8.7338C780.234 7.37347 782.363 6.6933 784.965 6.6933C793.009 6.35322 800.816 5.16293 807.676 1.93213C809.806 1.08193 812.171 -0.618491 815.247 0.231718C823.054 2.27222 832.044 1.08193 839.614 4.14268C844.109 6.01314 847.895 6.18318 853.336 4.31272C861.853 1.25197 871.079 2.27222 879.833 5.67306C884.801 7.71356 889.532 10.7743 896.157 8.56377C896.393 8.39372 897.103 8.73381 897.576 8.90385C902.071 11.2844 907.986 11.9646 912.48 14.5152C921.944 20.1266 932.826 21.9971 944.892 19.1064C945.838 18.9363 947.021 19.1064 947.967 19.1064C956.721 20.1266 966.184 18.9363 974.7 21.4869C975.174 21.657 976.12 21.4869 976.593 21.3169C978.722 19.9566 981.088 20.4667 983.454 20.6367C988.185 20.8068 992.68 21.1469 997.412 21.3169C1004.75 21.657 1010.42 18.4262 1016.81 16.7258C1020.12 15.8756 1023.44 14.8553 1026.75 15.7055C1035.74 17.746 1044.49 19.9566 1053.24 22.6772C1057.03 23.8675 1061.05 23.0173 1064.84 24.3777C1075.01 28.1186 1086.13 29.1388 1097.72 28.2886C1104.82 27.7785 1112.15 26.7582 1119.25 29.1388C1122.32 30.1591 1126.35 31.0093 1129.9 30.6692C1137.94 29.819 1145.75 28.9688 1153.79 28.7987C1160.41 28.6287 1167.04 26.2481 1173.66 28.7987C1176.97 29.989 1180.05 28.7988 1182.89 27.6085C1191.41 24.3777 1199.92 21.657 1210.1 22.3372C1214.59 22.5072 1218.61 23.3574 1222.87 24.2076C1225.71 24.7178 1228.78 25.0578 1230.2 22.8473C1232.1 19.9566 1235.17 19.7865 1238.48 19.7865C1242.51 19.7865 1246.53 19.9566 1250.55 19.7865C1257.17 19.2764 1263.33 19.2764 1269.71 20.9768C1274.44 22.3372 1279.18 24.3777 1284.38 23.6975C1287.69 23.3574 1291 23.6975 1294.08 24.3777C1300.94 25.738 1308.51 26.5882 1314.66 24.7178C1328.15 20.2967 1342.82 20.4667 1356.3 17.576C1359.61 16.8958 1362.92 17.2359 1366 17.576V59.7464L0 59.7463Z" fill="#2F4858"/>
</svg>
