<?xml version="1.0" encoding="utf-8"?>
<!-- Generator: Adobe Illustrator 15.0.0, SVG Export Plug-In . SVG Version: 6.00 Build 0)  -->
<!DOCTYPE svg PUBLIC "-//W3C//DTD SVG 1.1//EN" "http://www.w3.org/Graphics/SVG/1.1/DTD/svg11.dtd">
<svg version="1.1" id="Layer_1" xmlns="http://www.w3.org/2000/svg" xmlns:xlink="http://www.w3.org/1999/xlink" x="0px" y="0px"
	 width="1367px" height="35px" viewBox="0 0 1367 35" enable-background="new 0 0 1367 35" xml:space="preserve">
<path fill="#FFFFFF" d="M1367,0.071v21.671c-5.92-0.695-11.6-1.689-17.76-1.988c-3.31-0.199-5.92-0.596-8.52-1.392
	c-4.5-1.392-9.23-2.286-15.391-1.59c-6.859,0.795-12.779,2.287-20.6,2.287c-8.76,0-17.99,0.994-26.75,1.889
	c-4.73,0.497-8.76,0.1-13.02-0.895c-6.391-1.492-13.021-1.492-20.36-0.895c-9.71,0.795-19.65,2.783-29.59,0.298
	c-1.66-0.397-4.271-0.397-6.16-0.1c-5.44,0.796-10.89,0.597-16.34,0.796c-7.811,0.298-15.62,0.994-23.67,0.496
	c-2.13-0.1-5.92,0.199-6.63,0.796c-4.261,3.28-11.131,3.777-18.94,4.075c-2.84,0.1-5.45,0.299-7.58-0.496
	c-1.649-0.598-3.55-0.796-5.68-0.796c-5.44-0.099-10.891-0.397-16.33-0.497c-4.5-0.1-8.53,0.398-11.601,1.988
	c-1.42,0.795-3.319,0.994-5.449,1.193c-4.971,0.397-9.71-0.1-13.971-1.193c-3.08-0.695-5.68-0.695-8.989-0.596
	c-7.82,0.396-15.87,0.496-23.681,0.895c-5.439,0.298-10.649-0.796-15.859-0.598c-9.24,0.398-18.23,0.398-27.23-0.695
	c-7.811-0.895-16.808-0.299-23.91-2.484c-0.71-0.199-1.656,0-2.368,0c-3.551,0.198-7.102,0.396-10.652-0.299
	c-1.658-0.398-3.788-0.1-4.735,0.497c-3.078,1.889-6.629,1.491-10.417,0.497c-1.421-0.398-2.842-0.199-4.499-0.299
	c-10.654-0.198-21.544,0.795-32.198-0.596c-6.629-0.895-13.73,0.199-20.359-0.895c-1.185-0.199-2.605,0.198-4.025,0.198
	c-3.788,0.198-5.682,1.988-8.76,1.988c-10.654,0.198-21.071,0.497-30.541,2.784c-0.947,0.198-2.367,0.198-3.551,0.099
	c-5.919-0.597-11.602,0.198-17.283,0.796c-5.919,0.496-11.837,1.192-17.756,0.795c-3.788-0.299-6.629-1.094-11.128-0.695
	c-8.523,0.895-17.282,1.49-25.332,3.081c-3.551,0.696-6.866,0.895-10.417,0.796c-1.42,0-2.604,0-4.025,0.099
	c-8.286,0.597-16.572,2.088-25.332,1.292c-1.894-0.198-3.314,0.398-4.972,0.598c-5.208,0.695-10.654,1.689-16.336,0.695
	c-3.788-0.597-7.339-0.795-11.364-0.895c-14.915-0.199-28.883-2.088-42.378-4.573c-3.551-0.597-6.392-0.597-9.707-0.198
	c-4.261,0.496-8.049,1.49-12.311,1.689c-6.63,0.299-13.259-0.1-19.65-1.094c-1.658-0.298-4.025-0.795-5.446-0.199
	c-4.971,1.79-9.47,0.796-14.205,0c-5.682-1.093-10.89-0.496-15.388,1.492c-1.658,0.795-3.788,1.192-6.393,1.192
	c-8.05,0.198-15.862,0.896-22.729,2.784c-2.131,0.496-4.498,1.49-7.576,0.994c-7.813-1.193-16.809-0.498-24.385-2.287
	c-4.498-1.094-8.286-1.193-13.732-0.1c-8.522,1.789-17.756,1.193-26.516-0.795c-4.972-1.193-9.707-2.982-16.336-1.689
	c-0.236,0.099-0.947-0.1-1.42-0.199c-4.498-1.393-10.417-1.789-14.915-3.281c-9.471-3.28-20.361-4.373-32.435-2.684
	c-0.947,0.1-2.132,0-3.079,0c-8.76-0.597-18.229,0.1-26.753-1.392c-0.473-0.1-1.42,0-1.894,0.099
	c-2.131,0.796-4.498,0.498-6.866,0.398c-4.735-0.1-9.233-0.299-13.968-0.398c-7.339-0.198-13.021,1.69-19.414,2.685
	c-3.314,0.497-6.629,1.094-9.943,0.597c-8.997-1.193-17.756-2.485-26.516-4.076c-3.788-0.695-7.813-0.199-11.602-0.994
	c-10.18-2.188-21.308-2.783-32.907-2.286c-7.104,0.298-14.442,0.895-21.545-0.497c-3.078-0.596-7.103-1.093-10.654-0.895
	c-8.049,0.497-15.862,0.994-23.911,1.094c-6.629,0.1-13.258,1.49-19.887,0c-3.315-0.696-6.394,0-9.234,0.695
	c-8.522,1.889-17.046,3.479-27.226,3.082c-4.498-0.1-8.523-0.597-12.785-1.094c-2.841-0.299-5.918-0.497-7.339,0.795
	c-1.895,1.69-4.973,1.789-8.286,1.789c-4.025,0-8.05-0.099-12.075,0c-6.629,0.299-12.784,0.299-19.177-0.695
	c-4.734-0.795-9.47-1.988-14.678-1.59c-3.314,0.198-6.63,0-9.707-0.398c-6.866-0.795-14.442-1.292-20.598-0.199
	c-13.494,2.586-28.173,2.486-41.668,4.176c-3.314,0.398-6.629,0.199-9.707,0V0.071H1367z"/>
</svg>
